<?xml version="1.0" encoding="UTF-8"?>
<svg xmlns="http://www.w3.org/2000/svg" xmlns:xlink="http://www.w3.org/1999/xlink" viewBox="0 0 24 24" width="24px" height="24px">
<g id="surface43555724">
<path style=" stroke:none;fill-rule:nonzero;fill:rgb(9.803922%,16.470589%,19.607843%);fill-opacity:1;" d="M 3.5 2 C 3.371094 2 3.246094 2.050781 3.144531 2.144531 C 2.953125 2.339844 2.953125 2.660156 3.144531 2.851562 L 5.09375 4.800781 C 3.195312 6.621094 2 9.167969 2 12 C 2 17.511719 6.488281 22 12 22 C 17.511719 22 22 17.511719 22 12 C 22 6.863281 18.105469 2.617188 13.109375 2.0625 C 13.078125 2.0625 13.042969 2.058594 13.011719 2.058594 C 12.476562 2.054688 12.035156 2.46875 12 3 C 11.96875 3.53125 12.359375 3.996094 12.890625 4.050781 C 16.890625 4.496094 20 7.871094 20 12 C 20 16.429688 16.429688 20 12 20 C 7.570312 20 4 16.429688 4 12 C 4 9.710938 4.96875 7.664062 6.503906 6.210938 L 8.148438 7.851562 C 8.339844 8.046875 8.660156 8.046875 8.855469 7.851562 C 8.953125 7.757812 9 7.628906 9 7.5 L 9 3 C 9 2.449219 8.550781 2 8 2 Z M 3.5 2 "/>
</g>
</svg>
